<?xml version="1.0" encoding="UTF-8" standalone="no"?>
<!-- Created with Inkscape (http://www.inkscape.org/) -->

<svg
   width="119.23144mm"
   height="53.254372mm"
   viewBox="0 0 119.23144 53.254372"
   version="1.1"
   id="svg5"
   inkscape:version="1.1 (c68e22c387, 2021-05-23)"
   sodipodi:docname="logo.svg"
   xmlns:inkscape="http://www.inkscape.org/namespaces/inkscape"
   xmlns:sodipodi="http://sodipodi.sourceforge.net/DTD/sodipodi-0.dtd"
   xmlns="http://www.w3.org/2000/svg"
   xmlns:svg="http://www.w3.org/2000/svg">
  <sodipodi:namedview
     id="namedview7"
     pagecolor="#ffffff"
     bordercolor="#666666"
     borderopacity="1.0"
     inkscape:pageshadow="2"
     inkscape:pageopacity="0.0"
     inkscape:pagecheckerboard="0"
     inkscape:document-units="mm"
     showgrid="false"
     fit-margin-top="0"
     fit-margin-left="0"
     fit-margin-right="0"
     fit-margin-bottom="0"
     inkscape:zoom="0.69397447"
     inkscape:cx="317.01455"
     inkscape:cy="559.81887"
     inkscape:window-width="1920"
     inkscape:window-height="1017"
     inkscape:window-x="-8"
     inkscape:window-y="-8"
     inkscape:window-maximized="1"
     inkscape:current-layer="layer1" />
  <defs
     id="defs2" />
  <g
     inkscape:label="Layer 1"
     inkscape:groupmode="layer"
     id="layer1"
     transform="translate(-0.24527555,-0.30962596)">
    <path
       style="fill:#006b9a;fill-opacity:1;stroke-width:0.605152"
       d="M 0.24543555,26.93637 V 0.30962596 H 59.861089 119.47671 l -0.15942,20.32728804 -0.15941,20.327292 -13.38944,5.407588 c -7.364191,2.974175 -15.261431,5.804215 -17.549451,6.288935 -3.41037,0.72255 -11.71164,0.88325 -46.066853,0.89187 l -41.90686045,0.0114 z m 90.74247345,14.920139 2.14854,-0.703449 0.164,-12.330396 0.16399,-12.330419 -6.51816,0.276728 c -4.54529,0.193039 -7.12156,0.59188 -8.5117,1.317949 -5.75757,3.007202 -5.82193,12.257297 -0.10589,15.213197 1.0382,0.53685 3.77343,1.134219 6.0783,1.327441 3.87311,0.324713 4.19067,0.457256 4.19067,1.74904 0,1.144626 -0.41087,1.465976 -2.26931,1.774839 -1.24814,0.207448 -2.60973,0.483536 -3.02577,0.613563 -0.81461,0.254633 -1.04756,3.412515 -0.30642,4.153657 0.52763,0.527632 4.91834,-0.05604 7.99161,-1.06215 z M 80.125659,28.75183 c -1.40202,-1.402027 -1.57868,-4.106107 -0.37574,-5.751239 0.63106,-0.86305 1.81155,-1.203567 4.84124,-1.396469 l 4.00663,-0.255136 v 4.306579 4.306579 h -3.63091 c -2.82405,0 -3.89988,-0.268974 -4.84122,-1.210314 z m -58.094707,8.257339 v -2.030273 l 4.277049,-0.358563 c 5.064817,-0.424617 7.723757,-1.778819 9.186669,-4.678797 2.13254,-4.227373 0.73106,-9.495077 -3.117557,-11.717885 C 30.786615,17.305045 28.8229,16.972602 23.753679,16.763735 L 17.189725,16.493297 V 27.76637 39.039442 h 2.420614 c 2.343047,0 2.420613,-0.06496 2.420613,-2.030273 z m 0,-11.353604 v -4.306579 l 4.006657,0.255136 c 4.437035,0.282514 5.675793,1.207387 5.675793,4.237597 0,2.846069 -1.871592,4.120425 -6.051531,4.120425 h -3.630919 z m 22.260177,2.676359 0.17209,-6.168858 2.70238,-0.405244 c 2.67847,-0.401677 2.70239,-0.426539 2.70239,-2.810343 v -2.405098 l -2.5719,0.398063 c -3.26536,0.505401 -6.589619,1.508198 -7.564414,2.281887 -0.825784,0.655441 -1.119069,14.411536 -0.324208,15.206381 0.237731,0.237731 1.395088,0.351198 2.571903,0.252163 l 2.139669,-0.180002 z m 21.00829,5.80652 c 6.66707,-1.812761 8.89894,-9.596925 4.16756,-14.53541 -3.57427,-3.730732 -12.70037,-3.655049 -16.33191,0.135402 -1.58752,1.657003 -1.75419,2.225919 -1.75419,5.987574 0,3.765772 0.1656,4.32952 1.76176,5.995489 2.55562,2.667484 7.56921,3.664243 12.15678,2.416899 z m -8.03494,-5.118349 c -0.99753,-0.698715 -1.34496,-1.549574 -1.34496,-3.294039 0,-2.971476 1.62592,-4.236065 5.44638,-4.236065 3.82046,0 5.44638,1.264589 5.44638,4.236065 0,2.971476 -1.62592,4.236088 -5.44638,4.236088 -1.51604,0 -3.36169,-0.423932 -4.10142,-0.942049 z M 102.51633,25.68953 v -9.113825 l -2.26934,0.187779 -2.269301,0.187778 -0.16971,8.139046 c -0.0933,4.476472 -0.0339,8.493172 0.13243,8.926 0.16902,0.440285 1.24341,0.786978 2.439011,0.786978 h 2.13702 z m 0,-13.530738 v -2.069361 l -2.42062,0.950855 c -1.608001,0.631631 -2.420621,1.326343 -2.420621,2.069361 0,0.901497 0.46968,1.118506 2.420621,1.118506 2.35214,0 2.42062,-0.05855 2.42062,-2.069361 z"
       id="path836" />
  </g>
</svg>
